<?xml version="1.0" encoding="UTF-8" standalone="no"?>
<svg
   width="25.032034"
   height="98.573006"
   viewBox="0 0 25.032034 98.573006"
   fill="none"
   version="1.1"
   id="svg145"
   sodipodi:docname="co2.svg"
   inkscape:version="1.3.2 (091e20e, 2023-11-25, custom)"
   xmlns:inkscape="http://www.inkscape.org/namespaces/inkscape"
   xmlns:sodipodi="http://sodipodi.sourceforge.net/DTD/sodipodi-0.dtd"
   xmlns="http://www.w3.org/2000/svg"
   xmlns:svg="http://www.w3.org/2000/svg">
  <sodipodi:namedview
     id="namedview145"
     pagecolor="#ffffff"
     bordercolor="#000000"
     borderopacity="0.25"
     inkscape:showpageshadow="2"
     inkscape:pageopacity="0.0"
     inkscape:pagecheckerboard="0"
     inkscape:deskcolor="#d1d1d1"
     inkscape:zoom="3.9142857"
     inkscape:cx="105"
     inkscape:cy="49.434307"
     inkscape:window-width="1920"
     inkscape:window-height="1001"
     inkscape:window-x="-9"
     inkscape:window-y="-9"
     inkscape:window-maximized="1"
     inkscape:current-layer="g60" />
  <g
     clip-path="url(#clip0_6193_51543)"
     id="g60"
     transform="translate(-113.55797,-1.0625001)">
    <path
       d="m 128.597,18.9453 -1.252,0.0029 -0.004,-1.7396 1.07,-0.0024 c 0.1,-2e-4 0.18,0.0797 0.18,0.1791 l 0.004,1.56 z"
       fill="url(#paint4_linear_6193_51543)"
       id="path26"
       style="fill:url(#paint4_linear_6193_51543)" />
    <path
       d="m 127.666,19.6028 0.929,-0.6575 -0.932,0.0024 z"
       fill="#544f3b"
       id="path27" />
    <path
       d="m 128.233,9.31735 -4.081,0.00971 -2.862,0.00727 c 0.004,2.17867 3.229,2.51097 3.229,2.51097 l 1.618,-1.099 1.531,1.0918 c 0,0 3.222,-0.347 3.217,-2.5256 l -2.652,0.00728 z"
       fill="#323e49"
       id="path28" />
    <path
       d="m 123.783,17.2183 1.07,-0.0024 0.004,1.7395 -1.252,0.0029 -0.003,-1.56 c 0,-0.0995 0.079,-0.1797 0.179,-0.18 z"
       fill="url(#paint5_linear_6193_51543)"
       id="path29"
       style="fill:url(#paint5_linear_6193_51543)" />
    <path
       d="m 124.943,10.71 2.278,-0.0052 c 0.235,-5e-4 0.425,0.1883 0.425,0.4236 l 0.023,9.9397 -3.127,0.0071 -0.023,-9.9397 c -0.001,-0.2353 0.188,-0.425 0.424,-0.4255 z"
       fill="url(#paint6_linear_6193_51543)"
       id="path30"
       style="fill:url(#paint6_linear_6193_51543)" />
    <path
       d="m 124.042,20.0154 3.95,-0.0089 c 0.048,-2e-4 0.087,0.0386 0.087,0.0871 l 0.004,1.9118 -4.126,0.0093 -0.005,-1.9117 c 0,-0.0486 0.039,-0.0875 0.087,-0.0876 z"
       fill="url(#paint7_linear_6193_51543)"
       id="path31"
       style="fill:url(#paint7_linear_6193_51543)" />
    <path
       d="m 116.136,7.45264 c 0,0 9.181,-2.87492 19.754,-0.07278 l -4.348,-3.87205 -14.498,0.17711 -0.905,3.77015 z"
       fill="#0a4f38"
       id="path32" />
    <path
       d="m 126.016,1.06258 c -6.073,0.01456 -10.991,2.01123 -10.983,4.46401 0,0.69144 0.405,1.34164 1.104,1.92147 l 2.799,13.40414 0.01,4.1608 14.251,-0.0315 -0.01,-4.1608 h -0.024 l 2.739,-13.41873 -0.015,-0.02912 c 0,0 0.027,0.01941 0.037,0.02912 0.696,-0.58469 1.096,-1.23731 1.094,-1.92632 -0.005,-2.45036 -4.932,-4.42763 -11.005,-4.41307 z m 6.778,13.20522 c 0,0 -0.475,5.3641 -2.108,6.5578 l -9.273,0.0218 c -1.637,-1.1888 -2.137,-6.548 -2.137,-6.548 -0.995,-5.11911 -0.468,-7.44816 -0.019,-8.42345 1.863,-0.59682 4.209,-0.95831 6.768,-0.96316 2.548,-0.00485 4.884,0.34208 6.745,0.92434 0.454,0.96802 0.997,3.29222 0.024,8.43307 z"
       fill="url(#paint8_linear_6193_51543)"
       id="path33"
       style="fill:url(#paint8_linear_6193_51543)" />
    <path
       d="m 123.929,12.5713 c 0,0 2.089,-0.7691 4.314,-0.0097 v 1.5017 l -4.297,0.0073 -0.019,-1.4993 z"
       fill="url(#paint9_linear_6193_51543)"
       id="path34"
       style="fill:url(#paint9_linear_6193_51543)" />
    <path
       d="m 123.958,14.0769 0.571,0.427 3.127,-0.0073 0.592,-0.4392 c -2.761,-0.3687 -4.29,0.0195 -4.29,0.0195 z"
       fill="url(#paint10_linear_6193_51543)"
       id="path35"
       style="fill:url(#paint10_linear_6193_51543)" />
    <path
       d="m 124.538,19.6082 -0.932,-0.6551 h 0.932 z"
       fill="#544f3b"
       id="path36" />
    <path
       d="m 130.572,7.83049 -8.974,0.02036 c -0.174,3.9e-4 -0.315,0.14192 -0.315,0.3161 l 0.004,1.69341 c 10e-4,0.17424 0.142,0.31504 0.316,0.31464 l 8.974,-0.0203 c 0.175,-4e-4 0.316,-0.1419 0.315,-0.31613 l -0.004,-1.69341 c 0,-0.17418 -0.142,-0.31507 -0.316,-0.31467 z"
       fill="url(#paint11_linear_6193_51543)"
       id="path37"
       style="fill:url(#paint11_linear_6193_51543)" />
    <path
       d="m 127.429,7.5482 -2.501,0.00568 c -0.197,4.5e-4 -0.356,0.16048 -0.356,0.35744 l 0.005,1.90691 c 0,0.19697 0.16,0.35627 0.357,0.35587 l 2.501,-0.0057 c 0.197,-5e-4 0.357,-0.1605 0.356,-0.35746 L 127.787,7.90403 C 127.786,7.70707 127.626,7.54776 127.429,7.5482 Z"
       fill="url(#paint12_linear_6193_51543)"
       id="path38"
       style="fill:url(#paint12_linear_6193_51543)" />
    <path
       d="M 138.454,38.3565 C 138.44,31.6387 132.979,26.2042 126.261,26.2188 h -0.566 c -6.717,0.017 -12.152,5.4757 -12.137,12.196 l 0.133,57.8357 24.897,-0.0583 z"
       fill="url(#paint13_linear_6193_51543)"
       id="path39"
       style="fill:url(#paint13_linear_6193_51543)" />
    <path
       d="m 115.942,99.6331 20.409,-0.0461 c 1.239,-0.0024 2.241,-1.0093 2.239,-2.249 v -1.1427 l -24.899,0.0582 v 1.1427 c 0.005,1.2398 1.012,2.2417 2.251,2.2393 z"
       fill="url(#paint14_linear_6193_51543)"
       id="path40"
       style="fill:url(#paint14_linear_6193_51543)" />
    <path
       d="m 119.681,25.0391 12.614,-0.0287 0.007,3.1952 c 0,0.1868 -0.15,0.3376 -0.337,0.338 l -11.938,0.0271 c -0.187,4e-4 -0.338,-0.1497 -0.338,-0.3365 z"
       fill="url(#paint15_linear_6193_51543)"
       id="path41"
       style="fill:url(#paint15_linear_6193_51543)" />
    <path
       d="m 138.477,44.5372 -24.911,0.0566 0.074,32.3519 24.911,-0.0566 z"
       fill="#1e323d"
       id="path42" />
    <path
       opacity="0.7"
       d="m 138.463,44.5373 -24.89,0.0565 0.074,32.3519 24.889,-0.0565 z"
       fill="url(#paint16_linear_6193_51543)"
       id="path43"
       style="fill:url(#paint16_linear_6193_51543)" />
    <path
       d="m 113.647,76.9254 24.892,-0.0582 -24.887,2.1859 z"
       fill="url(#paint17_linear_6193_51543)"
       id="path44"
       style="fill:url(#paint17_linear_6193_51543)" />
  </g>
  <defs
     id="defs145">
    <linearGradient
       id="paint0_linear_6193_51543"
       x1="212.53999"
       y1="26.6572"
       x2="212.53999"
       y2="38.540199"
       gradientUnits="userSpaceOnUse">
      <stop
         stop-color="white"
         id="stop60" />
      <stop
         offset="1"
         stop-color="#B9C8D1"
         id="stop61" />
    </linearGradient>
    <linearGradient
       id="paint1_linear_6193_51543"
       x1="212.625"
       y1="85.449699"
       x2="212.625"
       y2="41.860001"
       gradientUnits="userSpaceOnUse">
      <stop
         stop-color="white"
         id="stop62" />
      <stop
         offset="0.22"
         stop-color="#F9FAFB"
         id="stop63" />
      <stop
         offset="0.48"
         stop-color="#EAEEF1"
         id="stop64" />
      <stop
         offset="0.77"
         stop-color="#D1DBE1"
         id="stop65" />
      <stop
         offset="1"
         stop-color="#B9C8D1"
         id="stop66" />
    </linearGradient>
    <linearGradient
       id="paint2_linear_6193_51543"
       x1="212.53999"
       y1="42.187"
       x2="212.53999"
       y2="61.646702"
       gradientUnits="userSpaceOnUse">
      <stop
         stop-color="#008760"
         id="stop67" />
      <stop
         offset="0.12"
         stop-color="#0E8E5F"
         id="stop68" />
      <stop
         offset="0.63"
         stop-color="#47AA5C"
         id="stop69" />
      <stop
         offset="0.88"
         stop-color="#5EB65B"
         id="stop70" />
    </linearGradient>
    <linearGradient
       id="paint3_linear_6193_51543"
       x1="212.36099"
       y1="36.081299"
       x2="212.36099"
       y2="42.607498"
       gradientUnits="userSpaceOnUse">
      <stop
         stop-color="white"
         id="stop71" />
      <stop
         offset="1"
         stop-color="#B9C8D1"
         id="stop72" />
    </linearGradient>
    <linearGradient
       id="paint4_linear_6193_51543"
       x1="127.343"
       y1="18.0772"
       x2="128.595"
       y2="18.074301"
       gradientUnits="userSpaceOnUse">
      <stop
         offset="0.2"
         stop-color="#B5A682"
         id="stop73" />
      <stop
         offset="0.21"
         stop-color="#B5A682"
         id="stop74" />
      <stop
         offset="0.72"
         stop-color="#D5C6A2"
         id="stop75" />
      <stop
         offset="1"
         stop-color="#E1D3AF"
         id="stop76" />
    </linearGradient>
    <linearGradient
       id="paint5_linear_6193_51543"
       x1="123.603"
       y1="18.087299"
       x2="124.855"
       y2="18.0844"
       gradientUnits="userSpaceOnUse">
      <stop
         stop-color="#E1D3AF"
         id="stop77" />
      <stop
         offset="0.22"
         stop-color="#D8CAA6"
         id="stop78" />
      <stop
         offset="0.57"
         stop-color="#C2B38F"
         id="stop79" />
      <stop
         offset="0.74"
         stop-color="#B5A682"
         id="stop80" />
    </linearGradient>
    <linearGradient
       id="paint6_linear_6193_51543"
       x1="124.53"
       y1="15.8931"
       x2="127.655"
       y2="15.886"
       gradientUnits="userSpaceOnUse">
      <stop
         stop-color="#6D674D"
         id="stop81" />
      <stop
         offset="0.08"
         stop-color="#756F55"
         id="stop82" />
      <stop
         offset="0.34"
         stop-color="#8F866D"
         id="stop83" />
      <stop
         offset="0.5"
         stop-color="#998F77"
         id="stop84" />
      <stop
         offset="0.65"
         stop-color="#90876E"
         id="stop85" />
      <stop
         offset="0.89"
         stop-color="#797258"
         id="stop86" />
      <stop
         offset="1"
         stop-color="#6D674D"
         id="stop87" />
    </linearGradient>
    <linearGradient
       id="paint7_linear_6193_51543"
       x1="123.957"
       y1="21.017599"
       x2="128.084"
       y2="21.0082"
       gradientUnits="userSpaceOnUse">
      <stop
         stop-color="#84919D"
         id="stop88" />
      <stop
         offset="0.06"
         stop-color="#8A97A2"
         id="stop89" />
      <stop
         offset="0.33"
         stop-color="#A4AEB8"
         id="stop90" />
      <stop
         offset="0.5"
         stop-color="#AEB7C1"
         id="stop91" />
      <stop
         offset="0.65"
         stop-color="#A5AFB9"
         id="stop92" />
      <stop
         offset="0.91"
         stop-color="#8E9AA5"
         id="stop93" />
      <stop
         offset="1"
         stop-color="#84919D"
         id="stop94" />
    </linearGradient>
    <linearGradient
       id="paint8_linear_6193_51543"
       x1="115.05"
       y1="13.0593"
       x2="137.03799"
       y2="13.0094"
       gradientUnits="userSpaceOnUse">
      <stop
         stop-color="#008760"
         id="stop95" />
      <stop
         offset="0.07"
         stop-color="#0E8E5F"
         id="stop96" />
      <stop
         offset="0.36"
         stop-color="#47AA5C"
         id="stop97" />
      <stop
         offset="0.5"
         stop-color="#5EB65B"
         id="stop98" />
      <stop
         offset="0.63"
         stop-color="#48AB5C"
         id="stop99" />
      <stop
         offset="0.92"
         stop-color="#118F5F"
         id="stop100" />
      <stop
         offset="1"
         stop-color="#008760"
         id="stop101" />
    </linearGradient>
    <linearGradient
       id="paint9_linear_6193_51543"
       x1="123.93"
       y1="13.1573"
       x2="128.243"
       y2="13.1476"
       gradientUnits="userSpaceOnUse">
      <stop
         stop-color="#B5A682"
         id="stop102" />
      <stop
         offset="0.09"
         stop-color="#BEAF8B"
         id="stop103" />
      <stop
         offset="0.34"
         stop-color="#D7C9A5"
         id="stop104" />
      <stop
         offset="0.5"
         stop-color="#E1D3AF"
         id="stop105" />
      <stop
         offset="0.65"
         stop-color="#D8CAA6"
         id="stop106" />
      <stop
         offset="0.89"
         stop-color="#C2B38F"
         id="stop107" />
      <stop
         offset="1"
         stop-color="#B5A682"
         id="stop108" />
    </linearGradient>
    <linearGradient
       id="paint10_linear_6193_51543"
       x1="123.957"
       y1="14.2092"
       x2="128.246"
       y2="14.1995"
       gradientUnits="userSpaceOnUse">
      <stop
         stop-color="#544F3B"
         id="stop109" />
      <stop
         offset="0.28"
         stop-color="#67624B"
         id="stop110" />
      <stop
         offset="0.5"
         stop-color="#716C53"
         id="stop111" />
      <stop
         offset="0.7"
         stop-color="#68634B"
         id="stop112" />
      <stop
         offset="1"
         stop-color="#544F3B"
         id="stop113" />
    </linearGradient>
    <linearGradient
       id="paint11_linear_6193_51543"
       x1="121.285"
       y1="9.0136604"
       x2="130.89"
       y2="8.9918699"
       gradientUnits="userSpaceOnUse">
      <stop
         stop-color="#4F5F70"
         id="stop114" />
      <stop
         offset="0.04"
         stop-color="#4C5B6C"
         id="stop115" />
      <stop
         offset="0.33"
         stop-color="#394652"
         id="stop116" />
      <stop
         offset="0.5"
         stop-color="#323E49"
         id="stop117" />
      <stop
         offset="0.66"
         stop-color="#384551"
         id="stop118" />
      <stop
         offset="0.93"
         stop-color="#495868"
         id="stop119" />
      <stop
         offset="1"
         stop-color="#4F5F70"
         id="stop120" />
    </linearGradient>
    <linearGradient
       id="paint12_linear_6193_51543"
       x1="126.184"
       y1="10.244"
       x2="126.178"
       y2="7.7815199"
       gradientUnits="userSpaceOnUse">
      <stop
         stop-color="#6B777F"
         id="stop121" />
      <stop
         offset="0.47"
         stop-color="#7C8893"
         id="stop122" />
      <stop
         offset="0.81"
         stop-color="#84919D"
         id="stop123" />
    </linearGradient>
    <linearGradient
       id="paint13_linear_6193_51543"
       x1="113.607"
       y1="61.2547"
       x2="138.506"
       y2="61.1982"
       gradientUnits="userSpaceOnUse">
      <stop
         stop-color="#84919D"
         id="stop124" />
      <stop
         offset="0.06"
         stop-color="#8A97A2"
         id="stop125" />
      <stop
         offset="0.33"
         stop-color="#A4AEB8"
         id="stop126" />
      <stop
         offset="0.5"
         stop-color="#AEB7C1"
         id="stop127" />
      <stop
         offset="0.65"
         stop-color="#A5AFB9"
         id="stop128" />
      <stop
         offset="0.91"
         stop-color="#8E9AA5"
         id="stop129" />
      <stop
         offset="1"
         stop-color="#84919D"
         id="stop130" />
    </linearGradient>
    <linearGradient
       id="paint14_linear_6193_51543"
       x1="113.69"
       y1="97.949997"
       x2="138.589"
       y2="97.893501"
       gradientUnits="userSpaceOnUse">
      <stop
         stop-color="#6B777F"
         id="stop131" />
      <stop
         offset="0.29"
         stop-color="#7C8893"
         id="stop132" />
      <stop
         offset="0.5"
         stop-color="#84919D"
         id="stop133" />
      <stop
         offset="0.7"
         stop-color="#7C8994"
         id="stop134" />
      <stop
         offset="1"
         stop-color="#6B777F"
         id="stop135" />
    </linearGradient>
    <linearGradient
       id="paint15_linear_6193_51543"
       x1="119.685"
       y1="26.8053"
       x2="132.299"
       y2="26.7766"
       gradientUnits="userSpaceOnUse">
      <stop
         stop-color="#6B777F"
         id="stop136" />
      <stop
         offset="0.29"
         stop-color="#7C8893"
         id="stop137" />
      <stop
         offset="0.5"
         stop-color="#84919D"
         id="stop138" />
      <stop
         offset="0.7"
         stop-color="#7C8994"
         id="stop139" />
      <stop
         offset="1"
         stop-color="#6B777F"
         id="stop140" />
    </linearGradient>
    <linearGradient
       id="paint16_linear_6193_51543"
       x1="113.612"
       y1="60.770901"
       x2="138.502"
       y2="60.714401"
       gradientUnits="userSpaceOnUse">
      <stop
         stop-color="#354855"
         id="stop141" />
      <stop
         offset="0.5"
         stop-color="#485E6B"
         id="stop142" />
      <stop
         offset="1"
         stop-color="#354855"
         id="stop143" />
    </linearGradient>
    <linearGradient
       id="paint17_linear_6193_51543"
       x1="113.647"
       y1="77.991096"
       x2="138.53799"
       y2="77.934601"
       gradientUnits="userSpaceOnUse">
      <stop
         stop-color="#6B777F"
         stop-opacity="0.7"
         id="stop144" />
      <stop
         offset="1"
         stop-color="#84919D"
         stop-opacity="0.5"
         id="stop145" />
    </linearGradient>
    <clipPath
       id="clip0_6193_51543">
      <rect
         width="279.802"
         height="99.632797"
         fill="#ffffff"
         transform="translate(0,0.601562)"
         id="rect145"
         x="0"
         y="0" />
    </clipPath>
  </defs>
</svg>
