<?xml version="1.0" encoding="UTF-8" standalone="no"?>
<svg
   width="22.430113"
   height="29.022551"
   viewBox="0 0 22.430113 29.022551"
   fill="none"
   version="1.1"
   id="svg1"
   sodipodi:docname="favicon_MBAM.svg"
   inkscape:version="1.3.2 (091e20e, 2023-11-25, custom)"
   xmlns:inkscape="http://www.inkscape.org/namespaces/inkscape"
   xmlns:sodipodi="http://sodipodi.sourceforge.net/DTD/sodipodi-0.dtd"
   xmlns="http://www.w3.org/2000/svg"
   xmlns:svg="http://www.w3.org/2000/svg">
  <sodipodi:namedview
     id="namedview1"
     pagecolor="#ffffff"
     bordercolor="#000000"
     borderopacity="0.25"
     inkscape:showpageshadow="2"
     inkscape:pageopacity="0.0"
     inkscape:pagecheckerboard="0"
     inkscape:deskcolor="#d1d1d1"
     inkscape:zoom="8.1185185"
     inkscape:cx="26.113139"
     inkscape:cy="14.349909"
     inkscape:window-width="1920"
     inkscape:window-height="1001"
     inkscape:window-x="-9"
     inkscape:window-y="-9"
     inkscape:window-maximized="1"
     inkscape:current-layer="Calque_1" />
  <g
     id="Calque_1"
     clip-path="url(#clip0_6613_3798)"
     transform="translate(-0.0546875,-0.65625034)">
    <g
       id="Group" />
    <g
       id="Group_2">
      <path
         id="Vector_18"
         d="M 9.18734,6.11277 C 8.4873,7.10489 8.25315,8.12597 8.48489,9.14706 c 0.5214,2.28354 3.24431,3.82124 3.27081,3.83814 0.0097,0.0048 0.0194,0.0072 0.0314,0.0072 0.0169,0 0.0338,-0.0072 0.0459,-0.0217 0.0193,-0.0217 0.0217,-0.0531 0.0048,-0.0772 C 11.355,12.1983 10.9833,11.4427 10.7274,10.6509 10.4208,9.69985 10.3895,8.72704 10.6333,7.84113 11.2368,5.65654 13.1751,4.6451 14.0176,4.29991 c -3.6957,2.87015 -2.8364,6.11689 -2.8291,6.15069 0.0072,0.0289 0.0362,0.0458 0.0652,0.0458 2.3583,-0.2269 3.9081,-1.81523 4.6226,-2.74217 0.42,-0.54555 0.7121,-1.14661 0.869,-1.78388 C 17.4333,3.15572 15.8111,0.708007 15.7942,0.683868 15.7797,0.664556 15.7556,0.652487 15.7315,0.657315 15.7073,0.662142 15.688,0.67904 15.6808,0.703179 15.6253,0.91319 15.3742,1.24148 14.9542,1.65185 14.4811,2.11049 13.9355,2.53534 13.332,2.91433 12.0454,3.72057 11.1136,4.35785 10.5584,4.75132 10.0008,5.14479 9.53736,5.60343 9.1801,6.11035 Z"
         fill="#23323c" />
      <path
         id="Vector_19"
         d="m 7.75759,7.91182 c 0,0 0.01207,0.00241 0.01931,0.00241 0.02414,0 0.04587,-0.01207 0.05552,-0.03379 C 8.6097,6.32587 8.13175,4.09783 7.92174,3.30365 8.6266,4.25232 8.81006,5.55584 8.81247,5.5679 8.8173,5.59687 8.83903,5.6186 8.86799,5.62101 8.89696,5.62343 8.92351,5.60653 8.93317,5.57997 9.17939,4.91132 10.7967,3.99886 10.8136,3.9892 10.8426,3.97231 10.8546,3.93851 10.8402,3.90713 10.6664,3.54021 10.3453,3.16123 9.88667,2.78224 9.5632,2.5143 9.27836,2.3405 8.84385,2.08704 8.2452,1.73702 7.02618,1.04422 7.01411,1.0394 6.98755,1.02491 6.95376,1.02974 6.93445,1.05388 6.28028,1.84806 5.99302,2.83776 5.99061,2.84259 5.50299,4.20646 5.49334,5.37479 5.95922,6.31139 6.55546,7.51352 7.7069,7.89251 7.75518,7.9094 Z"
         fill="#23323c" />
      <path
         id="Vector_20"
         d="M 22.1155,9.55635 C 21.8862,9.42117 21.6013,9.41876 21.3696,9.54911 L 14.1109,13.6045 11.2022,15.0963 9.83829,14.3938 1.17233,9.54911 C 0.940595,9.41876 0.655753,9.42117 0.426431,9.55635 0.197109,9.69153 0.0546875,9.93775 0.0546875,10.2033 v 12.2096 c 0,0.041 0.0048278,0.0796 0.0096557,0.1183 0.0217252,0.21 0.1375928,0.4031 0.3210508,0.5165 l 10.285706,6.38 c 0.1255,0.1521 0.3162,0.2511 0.5311,0.2511 0.0144,0 0.0265,0 0.0386,0 0.0096,0 0.0193,0 0.0289,0 0.1256,0 0.2535,-0.0338 0.3645,-0.1038 l 10.3147,-6.4404 c 0.3114,-0.0917 0.5359,-0.379 0.5359,-0.7193 V 10.2057 c 0,-0.26795 -0.1424,-0.51417 -0.3717,-0.64693 z M 1.55856,11.6685 5.84085,13.8797 10.5142,16.4915 V 27.709 L 1.55856,22.1546 Z m 10.33154,4.8979 5.9576,-3.3312 3.1332,-1.6077 v 10.4836 l -9.0932,5.6776 V 16.5664 Z"
         fill="#23323c" />
    </g>
  </g>
  <defs
     id="defs1">
    <clipPath
       id="clip0_6613_3798">
      <rect
         width="134.95"
         height="29.0201"
         fill="#ffffff"
         transform="translate(0.046875,0.65625)"
         id="rect1"
         x="0"
         y="0" />
    </clipPath>
  </defs>
</svg>
