<?xml version="1.0" encoding="UTF-8" standalone="no"?>
<svg
   width="135"
   height="30"
   viewBox="0 0 135 30"
   fill="#cbe9c9"
   version="1.1"
   id="svg30"
   sodipodi:docname="logo_MBAM.svg"
   xmlns:inkscape="http://www.inkscape.org/namespaces/inkscape"
   xmlns:sodipodi="http://sodipodi.sourceforge.net/DTD/sodipodi-0.dtd"
   xmlns="http://www.w3.org/2000/svg"
   xmlns:svg="http://www.w3.org/2000/svg">
  <sodipodi:namedview
     id="namedview32"
     pagecolor="#cbe9c9"
     bordercolor="#cbe9c9"
     borderopacity="0.25"
     inkscape:showpageshadow="2"
     inkscape:pageopacity="0.0"
     inkscape:pagecheckerboard="0"
     inkscape:deskcolor="#d1d1d1" />
  <g
     id="Calque_1"
     clip-path="url(#clip0_6613_3798)">
    <g
       id="Group">
      <path
         id="Vector"
         d="M33.2709 13.143H34.6033C34.642 13.143 34.6733 13.1575 34.6999 13.1841C34.7264 13.2106 34.7409 13.242 34.7409 13.2806V20.9859C34.7409 21.0245 34.7264 21.0559 34.6999 21.0824C34.6733 21.109 34.642 21.1234 34.6033 21.1234H33.2709C33.2322 21.1234 33.2008 21.1114 33.1743 21.0824C33.1477 21.0559 33.1333 21.0245 33.1333 20.9859V15.9601C33.1333 15.9287 33.126 15.9142 33.1115 15.9142C33.0971 15.9142 33.0802 15.9263 33.0657 15.948L31.8587 17.8405C31.8201 17.9009 31.767 17.9322 31.6994 17.9322H31.0259C30.9583 17.9322 30.9052 17.9009 30.8666 17.8405L29.6596 15.948C29.6452 15.9263 29.6283 15.9166 29.6138 15.919C29.5993 15.9239 29.592 15.9408 29.592 15.9697V20.9834C29.592 21.0221 29.5776 21.0534 29.551 21.08C29.5245 21.1065 29.4931 21.121 29.4544 21.121H28.122C28.0833 21.121 28.052 21.109 28.0254 21.08C27.9989 21.0534 27.9844 21.0221 27.9844 20.9834V13.2782C27.9844 13.2396 27.9964 13.2082 28.0254 13.1817C28.052 13.1551 28.0833 13.1406 28.122 13.1406H29.4544C29.522 13.1406 29.5751 13.172 29.6138 13.2324L31.3228 15.8877C31.3445 15.9335 31.3687 15.9335 31.3904 15.8877L33.1115 13.2324C33.1502 13.172 33.2033 13.1406 33.2709 13.1406V13.143Z"
         fill="#cbe9c9" />
      <path
         id="Vector_2"
         d="M39.7786 15.4302C40.1672 15.6016 40.4689 15.8357 40.6838 16.1302C40.901 16.4271 41.0097 16.7578 41.0097 17.1223V20.987C41.0097 21.0256 40.9952 21.057 40.9686 21.0836C40.9421 21.1101 40.9107 21.1246 40.8721 21.1246H39.5396C39.501 21.1246 39.4696 21.1125 39.443 21.0836C39.4165 21.057 39.402 21.0256 39.402 20.987V20.6104C39.402 20.5887 39.3948 20.5718 39.3803 20.5646C39.3658 20.5573 39.3489 20.5646 39.3344 20.5863C39.0158 21.0039 38.5016 21.2139 37.7967 21.2139C37.2029 21.2139 36.725 21.0691 36.3605 20.7818C35.996 20.4921 35.8125 20.0673 35.8125 19.5049C35.8125 18.9424 36.0177 18.4669 36.428 18.1434C36.8384 17.8199 37.4226 17.6582 38.183 17.6582H39.3465C39.3851 17.6582 39.4044 17.6389 39.4044 17.6003V17.3492C39.4044 17.0982 39.3296 16.9027 39.1775 16.7626C39.0254 16.6226 38.7985 16.5526 38.4944 16.5526C38.2578 16.5526 38.0623 16.5937 37.9078 16.6782C37.7509 16.7626 37.6519 16.8785 37.606 17.0306C37.5843 17.1151 37.5336 17.1513 37.4588 17.144L36.0804 16.963C35.9887 16.9485 35.9477 16.9147 35.9549 16.8592C35.9863 16.5406 36.1118 16.2509 36.3363 15.9926C36.5608 15.7343 36.8577 15.534 37.2246 15.3891C37.594 15.2443 38.0043 15.1719 38.4606 15.1719C38.9554 15.1719 39.3948 15.2564 39.7834 15.4277L39.7786 15.4302ZM39.0616 19.7559C39.2885 19.5821 39.4044 19.3576 39.4044 19.0824V18.6721C39.4044 18.6334 39.3851 18.6141 39.3465 18.6141H38.5257C38.183 18.6141 37.915 18.6793 37.7219 18.8072C37.5288 18.9352 37.4322 19.1186 37.4322 19.3552C37.4322 19.5604 37.5047 19.7221 37.6495 19.8404C37.7943 19.9587 37.9874 20.0166 38.2312 20.0166C38.5571 20.0166 38.8347 19.9297 39.064 19.7535L39.0616 19.7559Z"
         fill="#cbe9c9" />
      <path
         id="Vector_3"
         d="M49.4266 17.0348C50.1483 17.4066 50.5104 18.027 50.5104 18.8936C50.5104 19.6298 50.2594 20.1874 49.7573 20.564C49.2552 20.9406 48.5986 21.1288 47.7851 21.1288H44.8329C44.7943 21.1288 44.7629 21.1168 44.7363 21.0878C44.7098 21.0613 44.6953 21.0299 44.6953 20.9913V13.286C44.6953 13.2474 44.7074 13.216 44.7363 13.1895C44.7629 13.1629 44.7943 13.1484 44.8329 13.1484H47.6934C49.4942 13.1484 50.3946 13.8774 50.3946 15.3379C50.3946 16.0982 50.0711 16.6414 49.4266 16.9673C49.3807 16.989 49.3807 17.0131 49.4266 17.0348ZM46.3054 14.5847V16.3614C46.3054 16.4 46.3247 16.4193 46.3633 16.4193H47.6958C48.0531 16.4193 48.3307 16.3348 48.5286 16.1682C48.7266 16.0017 48.8255 15.7724 48.8255 15.4851C48.8255 15.1979 48.7266 14.954 48.5286 14.7851C48.3307 14.6137 48.0531 14.5292 47.6958 14.5292H46.3633C46.3247 14.5292 46.3054 14.5485 46.3054 14.5871V14.5847ZM48.6059 19.4681C48.8038 19.2894 48.9028 19.0432 48.9028 18.7318C48.9028 18.4204 48.8038 18.1742 48.6059 17.9956C48.4079 17.817 48.1303 17.7276 47.7731 17.7276H46.3609C46.3223 17.7276 46.303 17.7469 46.303 17.7856V19.6781C46.303 19.7167 46.3223 19.736 46.3609 19.736H47.7851C48.1351 19.736 48.4079 19.6467 48.6059 19.4681Z"
         fill="#cbe9c9" />
      <path
         id="Vector_4"
         d="M52.7029 20.7118C52.2466 20.3787 51.9353 19.9225 51.7687 19.3431C51.6625 18.9859 51.6094 18.5996 51.6094 18.1796C51.6094 17.7306 51.6625 17.3299 51.7687 16.9727C51.9425 16.4102 52.2587 15.9709 52.7149 15.6498C53.1712 15.3312 53.7167 15.1719 54.3564 15.1719C54.9961 15.1719 55.5103 15.3288 55.952 15.645C56.3913 15.9612 56.7052 16.3981 56.8862 16.9606C57.0069 17.3396 57.0697 17.7403 57.0697 18.1579C57.0697 18.5755 57.0165 18.9521 56.9103 19.3093C56.7438 19.9007 56.4324 20.3666 55.981 20.7046C55.5296 21.0425 54.984 21.2115 54.3468 21.2115C53.7095 21.2115 53.1615 21.0449 52.7053 20.7094L52.7029 20.7118ZM54.984 19.6062C55.1578 19.4542 55.2834 19.2466 55.3606 18.9786C55.4209 18.7348 55.4523 18.4693 55.4523 18.182C55.4523 17.8634 55.4209 17.593 55.3606 17.3734C55.2761 17.1151 55.1482 16.9147 54.972 16.7699C54.7982 16.6251 54.5833 16.5526 54.3347 16.5526C54.0861 16.5526 53.8616 16.6251 53.6902 16.7699C53.5188 16.9147 53.3957 17.1151 53.3208 17.3734C53.2605 17.5544 53.2291 17.8248 53.2291 18.182C53.2291 18.5393 53.2557 18.7903 53.3088 18.9786C53.3836 19.2442 53.5115 19.4542 53.6902 19.6062C53.8688 19.7583 54.0861 19.8331 54.3443 19.8331C54.6026 19.8331 54.8078 19.7583 54.9816 19.6062H54.984Z"
         fill="#cbe9c9" />
      <path
         id="Vector_5"
         d="M58.4199 14.3496C58.2485 14.1782 58.1641 13.9634 58.1641 13.7051C58.1641 13.4468 58.2486 13.2223 58.4151 13.0557C58.5817 12.8892 58.7989 12.8047 59.0645 12.8047C59.33 12.8047 59.5472 12.8892 59.7138 13.0557C59.8804 13.2223 59.9648 13.4395 59.9648 13.7051C59.9648 13.9706 59.8804 14.1782 59.709 14.3496C59.5376 14.521 59.3227 14.6055 59.0645 14.6055C58.8062 14.6055 58.5913 14.521 58.4199 14.3496ZM58.2823 21.0868C58.2558 21.0603 58.2413 21.0289 58.2413 20.9903V15.3948C58.2413 15.3562 58.2534 15.3248 58.2823 15.2983C58.3089 15.2717 58.3403 15.2572 58.3789 15.2572H59.7114C59.75 15.2572 59.7814 15.2693 59.8079 15.2983C59.8345 15.3248 59.849 15.3562 59.849 15.3948V20.9903C59.849 21.0289 59.8345 21.0603 59.8079 21.0868C59.7814 21.1134 59.75 21.1279 59.7114 21.1279H58.3789C58.3403 21.1279 58.3089 21.1158 58.2823 21.0868Z"
         fill="#cbe9c9" />
      <path
         id="Vector_6"
         d="M64.5152 16.5189C64.4886 16.5454 64.4573 16.5599 64.4186 16.5599H63.3251C63.2865 16.5599 63.2672 16.5792 63.2672 16.6179V19.0342C63.2672 19.2852 63.3179 19.4711 63.4217 19.5918C63.5255 19.7125 63.6896 19.7729 63.9165 19.7729H64.2931C64.3317 19.7729 64.3631 19.7873 64.3897 19.8139C64.4162 19.8404 64.4307 19.8718 64.4307 19.9104V20.9943C64.4307 21.0788 64.3848 21.1271 64.2931 21.1415C63.9745 21.156 63.7451 21.1657 63.61 21.1657C62.9799 21.1657 62.5092 21.0619 62.1978 20.8519C61.8864 20.6419 61.7271 20.2508 61.7199 19.6715V16.6179C61.7199 16.5792 61.7006 16.5599 61.6619 16.5599H61.0126C60.974 16.5599 60.9426 16.5479 60.916 16.5189C60.8895 16.4923 60.875 16.461 60.875 16.4223V15.4085C60.875 15.3699 60.8871 15.3385 60.916 15.3119C60.9426 15.2854 60.974 15.2709 61.0126 15.2709H61.6619C61.7006 15.2709 61.7199 15.2516 61.7199 15.213V13.8563C61.7199 13.8177 61.7319 13.7863 61.7609 13.7598C61.7875 13.7332 61.8188 13.7188 61.8575 13.7188H63.1344C63.173 13.7188 63.2044 13.7332 63.231 13.7598C63.2575 13.7863 63.272 13.8177 63.272 13.8563V15.213C63.272 15.2516 63.2913 15.2709 63.33 15.2709H64.4235C64.4621 15.2709 64.4935 15.2854 64.52 15.3119C64.5466 15.3385 64.561 15.3699 64.561 15.4085V16.4223C64.561 16.461 64.5466 16.4923 64.52 16.5189H64.5152Z"
         fill="#cbe9c9" />
      <path
         id="Vector_7"
         d="M70.7603 18.5604C70.7531 18.6522 70.7024 18.698 70.6131 18.698H67.0912C67.0453 18.698 67.0308 18.7173 67.0453 18.756C67.067 18.908 67.1105 19.0601 67.1708 19.2122C67.3688 19.637 67.7719 19.8495 68.3778 19.8495C68.863 19.8422 69.2468 19.6443 69.5292 19.2581C69.5606 19.2122 69.5944 19.1905 69.633 19.1905C69.6547 19.1905 69.6813 19.205 69.7127 19.2363L70.5334 20.045C70.572 20.0836 70.5913 20.1174 70.5913 20.1464C70.5913 20.1609 70.5769 20.1923 70.5455 20.2381C70.2944 20.5495 69.971 20.7909 69.5775 20.9623C69.1816 21.1337 68.7495 21.2182 68.2788 21.2182C67.6246 21.2182 67.0719 21.0709 66.6204 20.774C66.169 20.4771 65.8432 20.0643 65.6452 19.5308C65.4859 19.1519 65.4062 18.6522 65.4062 18.0366C65.4062 17.619 65.4642 17.2497 65.5776 16.931C65.7514 16.3927 66.058 15.9631 66.4949 15.642C66.9318 15.3234 67.4508 15.1641 68.0495 15.1641C68.8099 15.1641 69.4182 15.3837 69.8792 15.8255C70.3379 16.2672 70.6179 16.8562 70.7169 17.5925C70.7627 17.8821 70.7772 18.2032 70.7627 18.5604H70.7603ZM67.1153 17.2255C67.0839 17.3245 67.0574 17.4452 67.0356 17.59C67.0356 17.6287 67.055 17.648 67.0936 17.648H69.0657C69.1116 17.648 69.1261 17.6287 69.1116 17.59C69.073 17.3704 69.0537 17.2642 69.0537 17.2714C68.9861 17.0445 68.8654 16.8659 68.694 16.7403C68.5226 16.6148 68.3126 16.5521 68.0616 16.5521C67.5836 16.5521 67.2674 16.7766 67.1153 17.2255Z"
         fill="#cbe9c9" />
      <path
         id="Vector_8"
         d="M77.8723 15.4344C78.261 15.6058 78.5627 15.84 78.7775 16.1345C78.9948 16.4314 79.1034 16.7621 79.1034 17.1266V20.9913C79.1034 21.0299 79.0889 21.0613 79.0624 21.0878C79.0358 21.1144 79.0044 21.1288 78.9658 21.1288H77.6333C77.5947 21.1288 77.5633 21.1168 77.5368 21.0878C77.5102 21.0613 77.4957 21.0299 77.4957 20.9913V20.6147C77.4957 20.593 77.4885 20.5761 77.474 20.5688C77.4595 20.5616 77.4426 20.5688 77.4282 20.5905C77.1095 21.0082 76.5954 21.2182 75.8905 21.2182C75.2967 21.2182 74.8187 21.0733 74.4542 20.7861C74.0897 20.4964 73.9062 20.0716 73.9062 19.5091C73.9062 18.9467 74.1114 18.4711 74.5218 18.1477C74.9322 17.8242 75.5163 17.6625 76.2767 17.6625H77.4402C77.4788 17.6625 77.4982 17.6432 77.4982 17.6045V17.3535C77.4982 17.1024 77.4233 16.9069 77.2713 16.7669C77.1192 16.6269 76.8923 16.5569 76.5881 16.5569C76.3515 16.5569 76.156 16.5979 76.0015 16.6824C75.8446 16.7669 75.7457 16.8828 75.6998 17.0348C75.6781 17.1193 75.6274 17.1555 75.5525 17.1483L74.1742 16.9673C74.0825 16.9528 74.0414 16.919 74.0487 16.8635C74.0801 16.5448 74.2056 16.2551 74.4301 15.9969C74.6546 15.7386 74.9515 15.5382 75.3184 15.3934C75.6877 15.2485 76.0981 15.1761 76.5543 15.1761C77.0492 15.1761 77.4885 15.2606 77.8771 15.432L77.8723 15.4344ZM77.235 14.4713C77.235 14.5316 77.1964 14.563 77.1216 14.563H76.1633C76.0957 14.563 76.0426 14.5316 76.0039 14.4713L75.1953 13.3198C75.1808 13.2981 75.1736 13.2715 75.1736 13.2402C75.1736 13.1798 75.2122 13.1484 75.287 13.1484H76.4384C76.5133 13.1484 76.5712 13.1822 76.6098 13.2522L77.2133 14.4037C77.2278 14.4351 77.235 14.4568 77.235 14.4713ZM77.1554 19.7602C77.3823 19.5864 77.4982 19.3619 77.4982 19.0867V18.6763C77.4982 18.6377 77.4788 18.6184 77.4402 18.6184H76.6195C76.2767 18.6184 76.0088 18.6835 75.8157 18.8115C75.6225 18.9394 75.526 19.1229 75.526 19.3594C75.526 19.5646 75.5984 19.7264 75.7432 19.8446C75.8881 19.9629 76.0812 20.0209 76.325 20.0209C76.6509 20.0209 76.9285 19.934 77.1578 19.7577L77.1554 19.7602Z"
         fill="#cbe9c9" />
      <path
         id="Vector_9"
         d="M88.0912 13.143H89.4237C89.4623 13.143 89.4937 13.1575 89.5202 13.1841C89.5468 13.2106 89.5612 13.242 89.5612 13.2806V20.9859C89.5612 21.0245 89.5468 21.0559 89.5202 21.0824C89.4937 21.109 89.4623 21.1234 89.4237 21.1234H88.0912C88.0525 21.1234 88.0212 21.1114 87.9946 21.0824C87.9681 21.0559 87.9536 21.0245 87.9536 20.9859V15.9601C87.9536 15.9287 87.9463 15.9142 87.9318 15.9142C87.9174 15.9142 87.9005 15.9263 87.886 15.948L86.679 17.8405C86.6404 17.9009 86.5873 17.9322 86.5197 17.9322H85.8462C85.7786 17.9322 85.7255 17.9009 85.6869 17.8405L84.4799 15.948C84.4655 15.9263 84.4486 15.9166 84.4341 15.919C84.4196 15.9239 84.4124 15.9408 84.4124 15.9697V20.9834C84.4124 21.0221 84.3979 21.0534 84.3713 21.08C84.3448 21.1065 84.3134 21.121 84.2748 21.121H82.9423C82.9037 21.121 82.8723 21.109 82.8457 21.08C82.8192 21.0534 82.8047 21.0221 82.8047 20.9834V13.2782C82.8047 13.2396 82.8168 13.2082 82.8457 13.1817C82.8723 13.1551 82.9037 13.1406 82.9423 13.1406H84.2748C84.3424 13.1406 84.3955 13.172 84.4341 13.2324L86.1431 15.8877C86.1649 15.9335 86.189 15.9335 86.2107 15.8877L87.9318 13.2324C87.9705 13.172 88.0236 13.1406 88.0912 13.1406V13.143Z"
         fill="#cbe9c9" />
      <path
         id="Vector_10"
         d="M91.8826 20.7118C91.4263 20.3787 91.1149 19.9225 90.9484 19.3431C90.8422 18.9859 90.7891 18.5996 90.7891 18.1796C90.7891 17.7306 90.8422 17.3299 90.9484 16.9727C91.1222 16.4102 91.4384 15.9709 91.8946 15.6498C92.3509 15.3312 92.8964 15.1719 93.5361 15.1719C94.1758 15.1719 94.69 15.3288 95.1317 15.645C95.571 15.9612 95.8848 16.3981 96.0659 16.9606C96.1866 17.3396 96.2493 17.7403 96.2493 18.1579C96.2493 18.5755 96.1962 18.9521 96.09 19.3093C95.9235 19.9007 95.6121 20.3666 95.1607 20.7046C94.7093 21.0425 94.1637 21.2115 93.5264 21.2115C92.8892 21.2115 92.3412 21.0449 91.885 20.7094L91.8826 20.7118ZM94.1613 19.6062C94.3351 19.4542 94.4606 19.2466 94.5379 18.9786C94.5982 18.7348 94.6296 18.4693 94.6296 18.182C94.6296 17.8634 94.5982 17.593 94.5379 17.3734C94.4534 17.1151 94.3255 16.9147 94.1492 16.7699C93.9754 16.6251 93.7606 16.5526 93.512 16.5526C93.2633 16.5526 93.0388 16.6251 92.8674 16.7699C92.6961 16.9147 92.573 17.1151 92.4981 17.3734C92.4378 17.5544 92.4064 17.8248 92.4064 18.182C92.4064 18.5393 92.4329 18.7903 92.486 18.9786C92.5609 19.2442 92.6888 19.4542 92.8674 19.6062C93.0461 19.7583 93.2633 19.8331 93.5216 19.8331C93.7799 19.8331 93.9851 19.7583 94.1589 19.6062H94.1613Z"
         fill="#cbe9c9" />
      <path
         id="Vector_11"
         d="M100.831 15.3091C100.857 15.2825 100.889 15.268 100.927 15.268H102.26C102.298 15.268 102.33 15.2825 102.356 15.3091C102.383 15.3356 102.397 15.367 102.397 15.4056V20.989C102.397 21.0276 102.383 21.059 102.356 21.0856C102.33 21.1121 102.298 21.1266 102.26 21.1266H100.927C100.889 21.1266 100.857 21.1145 100.831 21.0856C100.804 21.059 100.79 21.0276 100.79 20.989V20.6004C100.79 20.5762 100.782 20.5642 100.768 20.5593C100.753 20.5545 100.737 20.5642 100.722 20.5883C100.418 20.9987 99.9472 21.2039 99.3099 21.2039C98.733 21.2039 98.2575 21.0301 97.8857 20.68C97.514 20.33 97.3281 19.84 97.3281 19.21V15.4032C97.3281 15.3646 97.3402 15.3332 97.3692 15.3067C97.3957 15.2801 97.4271 15.2656 97.4657 15.2656H98.7885C98.8272 15.2656 98.8586 15.2801 98.8851 15.3067C98.9117 15.3332 98.9261 15.3646 98.9261 15.4032V18.8117C98.9261 19.1158 99.0082 19.362 99.1724 19.5527C99.3365 19.7434 99.561 19.8376 99.8507 19.8376C100.109 19.8376 100.321 19.7603 100.488 19.6034C100.655 19.4465 100.758 19.2438 100.795 18.9927V15.4032C100.795 15.3646 100.807 15.3332 100.836 15.3067L100.831 15.3091Z"
         fill="#cbe9c9" />
      <path
         id="Vector_12"
         d="M104.682 20.9857C104.303 20.8409 104.008 20.6405 103.798 20.3822C103.588 20.124 103.484 19.8319 103.484 19.506V19.3925C103.484 19.3539 103.496 19.3225 103.525 19.296C103.552 19.2694 103.583 19.2549 103.622 19.2549H104.887C104.925 19.2549 104.957 19.267 104.983 19.296C105.01 19.3225 105.024 19.3539 105.024 19.3925V19.4046C105.024 19.5712 105.119 19.7136 105.304 19.8319C105.49 19.9502 105.724 20.0081 106.005 20.0081C106.263 20.0081 106.473 19.9574 106.632 19.8536C106.791 19.7498 106.871 19.6243 106.871 19.4722C106.871 19.3346 106.804 19.2332 106.666 19.1656C106.528 19.098 106.304 19.0256 105.992 18.9484C105.635 18.8567 105.355 18.7698 105.15 18.6853C104.665 18.5187 104.276 18.3135 103.986 18.0697C103.697 17.8259 103.554 17.4759 103.554 17.0221C103.554 16.4596 103.772 16.0131 104.209 15.6824C104.645 15.3516 105.225 15.1875 105.947 15.1875C106.432 15.1875 106.859 15.2647 107.224 15.4217C107.588 15.5786 107.87 15.7958 108.073 16.0758C108.274 16.3582 108.375 16.6769 108.375 17.0341C108.375 17.0728 108.36 17.1042 108.334 17.1307C108.307 17.1573 108.276 17.1717 108.237 17.1717H107.018C106.98 17.1717 106.948 17.1597 106.922 17.1307C106.895 17.1042 106.881 17.0728 106.881 17.0341C106.881 16.8676 106.796 16.7276 106.625 16.6117C106.453 16.4983 106.229 16.4403 105.947 16.4403C105.696 16.4403 105.49 16.4862 105.331 16.5779C105.172 16.6696 105.092 16.7952 105.092 16.9545C105.092 17.1138 105.169 17.22 105.326 17.2973C105.481 17.3745 105.741 17.4542 106.106 17.5362C106.19 17.558 106.285 17.5845 106.391 17.6111C106.497 17.6376 106.61 17.669 106.734 17.7076C107.272 17.8669 107.699 18.0721 108.01 18.3232C108.322 18.5742 108.479 18.9387 108.479 19.4167C108.479 19.9791 108.257 20.4185 107.813 20.7323C107.368 21.0485 106.77 21.2054 106.017 21.2054C105.507 21.2054 105.063 21.133 104.684 20.9881L104.682 20.9857Z"
         fill="#cbe9c9" />
      <path
         id="Vector_13"
         d="M112.804 16.5189C112.778 16.5454 112.746 16.5599 112.708 16.5599H111.614C111.576 16.5599 111.556 16.5792 111.556 16.6179V19.0342C111.556 19.2852 111.607 19.4711 111.711 19.5918C111.815 19.7125 111.979 19.7729 112.206 19.7729H112.582C112.621 19.7729 112.652 19.7873 112.679 19.8139C112.705 19.8404 112.72 19.8718 112.72 19.9104V20.9943C112.72 21.0788 112.674 21.1271 112.582 21.1415C112.264 21.156 112.034 21.1657 111.899 21.1657C111.269 21.1657 110.798 21.0619 110.487 20.8519C110.175 20.6419 110.016 20.2508 110.009 19.6715V16.6179C110.009 16.5792 109.99 16.5599 109.951 16.5599H109.302C109.263 16.5599 109.232 16.5479 109.205 16.5189C109.179 16.4923 109.164 16.461 109.164 16.4223V15.4085C109.164 15.3699 109.176 15.3385 109.205 15.3119C109.232 15.2854 109.263 15.2709 109.302 15.2709H109.951C109.99 15.2709 110.009 15.2516 110.009 15.213V13.8563C110.009 13.8177 110.021 13.7863 110.05 13.7598C110.077 13.7332 110.108 13.7188 110.147 13.7188H111.423C111.462 13.7188 111.493 13.7332 111.52 13.7598C111.547 13.7863 111.561 13.8177 111.561 13.8563V15.213C111.561 15.2516 111.58 15.2709 111.619 15.2709H112.713C112.751 15.2709 112.783 15.2854 112.809 15.3119C112.836 15.3385 112.85 15.3699 112.85 15.4085V16.4223C112.85 16.461 112.836 16.4923 112.809 16.5189H112.804Z"
         fill="#cbe9c9" />
      <path
         id="Vector_14"
         d="M114.123 14.3496C113.952 14.1782 113.867 13.9634 113.867 13.7051C113.867 13.4468 113.952 13.2223 114.118 13.0557C114.285 12.8892 114.502 12.8047 114.768 12.8047C115.033 12.8047 115.25 12.8892 115.417 13.0557C115.583 13.2223 115.668 13.4395 115.668 13.7051C115.668 13.9706 115.583 14.1782 115.412 14.3496C115.241 14.521 115.026 14.6055 114.768 14.6055C114.509 14.6055 114.294 14.521 114.123 14.3496ZM113.988 21.0868C113.961 21.0603 113.947 21.0289 113.947 20.9903V15.3948C113.947 15.3562 113.959 15.3248 113.988 15.2983C114.014 15.2717 114.046 15.2572 114.084 15.2572H115.417C115.456 15.2572 115.487 15.2693 115.513 15.2983C115.54 15.3248 115.555 15.3562 115.555 15.3948V20.9903C115.555 21.0289 115.54 21.0603 115.513 21.0868C115.487 21.1134 115.456 21.1279 115.417 21.1279H114.084C114.046 21.1279 114.014 21.1158 113.988 21.0868Z"
         fill="#cbe9c9" />
      <path
         id="Vector_15"
         d="M120.577 15.31C120.604 15.2835 120.635 15.269 120.674 15.269H122.006C122.045 15.269 122.076 15.2835 122.103 15.31C122.129 15.3366 122.144 15.368 122.144 15.4066V23.1118C122.144 23.1504 122.129 23.1818 122.103 23.2084C122.076 23.2349 122.045 23.2494 122.006 23.2494H120.674C120.635 23.2494 120.604 23.2349 120.577 23.2084C120.551 23.1818 120.536 23.1504 120.536 23.1118V20.6738C120.536 20.652 120.529 20.6351 120.514 20.6279C120.5 20.6207 120.483 20.6279 120.469 20.6496C120.164 21.0286 119.74 21.2193 119.192 21.2193C118.644 21.2193 118.171 21.0769 117.796 20.792C117.422 20.5072 117.145 20.121 116.971 19.6358C116.833 19.2327 116.766 18.7595 116.766 18.2116C116.766 17.695 116.831 17.2388 116.959 16.8429C117.125 16.3191 117.4 15.9111 117.784 15.619C118.168 15.3269 118.627 15.1797 119.158 15.1797C119.689 15.1797 120.15 15.3897 120.469 15.8073C120.483 15.8218 120.5 15.829 120.514 15.8242C120.529 15.8194 120.536 15.8073 120.536 15.7832V15.4066C120.536 15.368 120.548 15.3366 120.577 15.31ZM120.527 18.1995C120.527 17.7143 120.452 17.3305 120.3 17.0481C120.109 16.7222 119.843 16.558 119.503 16.558C119.131 16.558 118.849 16.7222 118.661 17.0481C118.501 17.3522 118.422 17.7312 118.422 18.1874C118.422 18.6968 118.516 19.0999 118.706 19.3944C118.897 19.6913 119.165 19.8385 119.515 19.8385C119.865 19.8385 120.104 19.6865 120.278 19.3823C120.444 19.1023 120.529 18.7064 120.529 18.1971L120.527 18.1995Z"
         fill="#cbe9c9" />
      <path
         id="Vector_16"
         d="M126.924 15.3091C126.951 15.2825 126.982 15.268 127.021 15.268H128.354C128.392 15.268 128.424 15.2825 128.45 15.3091C128.477 15.3356 128.491 15.367 128.491 15.4056V20.989C128.491 21.0276 128.477 21.059 128.45 21.0856C128.424 21.1121 128.392 21.1266 128.354 21.1266H127.021C126.982 21.1266 126.951 21.1145 126.924 21.0856C126.898 21.059 126.883 21.0276 126.883 20.989V20.6004C126.883 20.5762 126.876 20.5642 126.862 20.5593C126.847 20.5545 126.83 20.5642 126.816 20.5883C126.512 20.9987 126.041 21.2039 125.404 21.2039C124.827 21.2039 124.351 21.0301 123.979 20.68C123.608 20.33 123.422 19.84 123.422 19.21V15.4032C123.422 15.3646 123.434 15.3332 123.463 15.3067C123.489 15.2801 123.521 15.2656 123.559 15.2656H124.882C124.921 15.2656 124.952 15.2801 124.979 15.3067C125.005 15.3332 125.02 15.3646 125.02 15.4032V18.8117C125.02 19.1158 125.102 19.362 125.266 19.5527C125.43 19.7434 125.655 19.8376 125.944 19.8376C126.203 19.8376 126.415 19.7603 126.582 19.6034C126.748 19.4465 126.852 19.2438 126.888 18.9927V15.4032C126.888 15.3646 126.9 15.3332 126.929 15.3067L126.924 15.3091Z"
         fill="#cbe9c9" />
      <path
         id="Vector_17"
         d="M134.995 18.5604C134.987 18.6522 134.937 18.698 134.847 18.698H131.326C131.28 18.698 131.265 18.7173 131.28 18.756C131.301 18.908 131.345 19.0601 131.405 19.2122C131.603 19.637 132.006 19.8495 132.612 19.8495C133.097 19.8422 133.481 19.6443 133.764 19.2581C133.795 19.2122 133.829 19.1905 133.867 19.1905C133.889 19.1905 133.916 19.205 133.947 19.2363L134.768 20.045C134.806 20.0836 134.826 20.1174 134.826 20.1464C134.826 20.1609 134.811 20.1923 134.78 20.2381C134.529 20.5495 134.205 20.7909 133.812 20.9623C133.416 21.1337 132.984 21.2182 132.513 21.2182C131.859 21.2182 131.306 21.0709 130.855 20.774C130.403 20.4771 130.078 20.0643 129.88 19.5308C129.72 19.1519 129.641 18.6522 129.641 18.0366C129.641 17.619 129.699 17.2497 129.812 16.931C129.986 16.3927 130.292 15.9631 130.729 15.642C131.166 15.3234 131.685 15.1641 132.284 15.1641C133.044 15.1641 133.653 15.3837 134.114 15.8255C134.572 16.2672 134.852 16.8562 134.951 17.5925C134.997 17.8821 135.012 18.2032 134.997 18.5604H134.995ZM131.347 17.2255C131.316 17.3245 131.289 17.4452 131.268 17.59C131.268 17.6287 131.287 17.648 131.326 17.648H133.298C133.344 17.648 133.358 17.6287 133.344 17.59C133.305 17.3704 133.286 17.2642 133.286 17.2714C133.218 17.0445 133.097 16.8659 132.926 16.7403C132.755 16.6148 132.545 16.5521 132.294 16.5521C131.816 16.5521 131.499 16.7766 131.347 17.2255Z"
         fill="#cbe9c9" />
    </g>
    <g
       id="Group_2">
      <path
         id="Vector_18"
         d="M9.18734 6.11277C8.4873 7.10489 8.25315 8.12597 8.48489 9.14706C9.00629 11.4306 11.7292 12.9683 11.7557 12.9852C11.7654 12.99 11.7751 12.9924 11.7871 12.9924C11.804 12.9924 11.8209 12.9852 11.833 12.9707C11.8523 12.949 11.8547 12.9176 11.8378 12.8935C11.355 12.1983 10.9833 11.4427 10.7274 10.6509C10.4208 9.69985 10.3895 8.72704 10.6333 7.84113C11.2368 5.65654 13.1751 4.6451 14.0176 4.29991C10.3219 7.17006 11.1812 10.4168 11.1885 10.4506C11.1957 10.4795 11.2247 10.4964 11.2537 10.4964C13.612 10.2695 15.1618 8.68117 15.8763 7.75423C16.2963 7.20868 16.5884 6.60762 16.7453 5.97035C17.4333 3.15572 15.8111 0.708007 15.7942 0.683868C15.7797 0.664556 15.7556 0.652487 15.7315 0.657315C15.7073 0.662142 15.688 0.67904 15.6808 0.703179C15.6253 0.91319 15.3742 1.24148 14.9542 1.65185C14.4811 2.11049 13.9355 2.53534 13.332 2.91433C12.0454 3.72057 11.1136 4.35785 10.5584 4.75132C10.0008 5.14479 9.53736 5.60343 9.1801 6.11035L9.18734 6.11277Z"
         fill="#cbe9c9" />
      <path
         id="Vector_19"
         d="M7.75759 7.91182C7.75759 7.91182 7.76966 7.91423 7.7769 7.91423C7.80104 7.91423 7.82277 7.90216 7.83242 7.88044C8.6097 6.32587 8.13175 4.09783 7.92174 3.30365C8.6266 4.25232 8.81006 5.55584 8.81247 5.5679C8.8173 5.59687 8.83903 5.6186 8.86799 5.62101C8.89696 5.62343 8.92351 5.60653 8.93317 5.57997C9.17939 4.91132 10.7967 3.99886 10.8136 3.9892C10.8426 3.97231 10.8546 3.93851 10.8402 3.90713C10.6664 3.54021 10.3453 3.16123 9.88667 2.78224C9.5632 2.5143 9.27836 2.3405 8.84385 2.08704C8.2452 1.73702 7.02618 1.04422 7.01411 1.0394C6.98755 1.02491 6.95376 1.02974 6.93445 1.05388C6.28028 1.84806 5.99302 2.83776 5.99061 2.84259C5.50299 4.20646 5.49334 5.37479 5.95922 6.31139C6.55546 7.51352 7.7069 7.89251 7.75518 7.9094L7.75759 7.91182Z"
         fill="#cbe9c9" />
      <path
         id="Vector_20"
         d="M22.1155 9.55635C21.8862 9.42117 21.6013 9.41876 21.3696 9.54911L14.1109 13.6045L11.2022 15.0963L9.83829 14.3938L1.17233 9.54911C0.940595 9.41876 0.655753 9.42117 0.426431 9.55635C0.197109 9.69153 0.0546875 9.93775 0.0546875 10.2033V22.4129C0.0546875 22.4539 0.0595153 22.4925 0.0643432 22.5312C0.0860684 22.7412 0.201936 22.9343 0.385394 23.0477L10.6711 29.4277C10.7966 29.5798 10.9873 29.6788 11.2022 29.6788C11.2166 29.6788 11.2287 29.6788 11.2408 29.6788C11.2504 29.6788 11.2601 29.6788 11.2697 29.6788C11.3953 29.6788 11.5232 29.645 11.6342 29.575L21.9489 23.1346C22.2603 23.0429 22.4848 22.7556 22.4848 22.4153V10.2057C22.4848 9.93775 22.3424 9.69153 22.1131 9.55877L22.1155 9.55635ZM1.55856 11.6685L5.84085 13.8797L10.5142 16.4915V27.709L1.55856 22.1546V11.6685ZM11.8901 16.5664L17.8477 13.2352L20.9809 11.6275V22.1111L11.8877 27.7887V16.5664H11.8901Z"
         fill="#cbe9c9" />
    </g>
  </g>
  <defs
     id="defs28">
    <clipPath
       id="clip0_6613_3798">
      <rect
         width="134.95"
         height="29.0201"
         fill="white"
         transform="translate(0.046875 0.65625)"
         id="rect25" />
    </clipPath>
  </defs>
</svg>
